<svg width="95" height="95" viewBox="0 0 95 95" fill="none" xmlns="http://www.w3.org/2000/svg">
    <path d="m65.21 21.407 8.383 8.38-8.383-8.38zm5.39-7.383-22.668 22.67a8.384 8.384 0 0 0-2.296 4.283l-2.094 10.481 10.481-2.098a8.375 8.375 0 0 0 4.283-2.291l22.67-22.67a7.338 7.338 0 0 0 0-10.375 7.335 7.335 0 0 0-10.375 0v0z" stroke="#185ADB" stroke-width="5" stroke-linecap="round" stroke-linejoin="round"/>
    <path d="M75.208 59.375V71.25a7.917 7.917 0 0 1-7.916 7.917H23.75a7.917 7.917 0 0 1-7.917-7.917V27.708a7.917 7.917 0 0 1 7.917-7.916h11.875" stroke="#185ADB" stroke-width="5" stroke-linecap="round" stroke-linejoin="round"/>
</svg>
