<svg width="95" height="95" viewBox="0 0 95 95" fill="none" xmlns="http://www.w3.org/2000/svg">
    <path fill-rule="evenodd" clip-rule="evenodd" d="M56.087 35.36c.237.23.425.502.554.803a2.414 2.414 0 0 1 0 1.896 2.47 2.47 0 0 1-.554.803L40.82 53.707a2.55 2.55 0 0 1-.826.538 2.607 2.607 0 0 1-2.777-.538l-7.634-7.422a2.473 2.473 0 0 1-.552-.804 2.417 2.417 0 0 1 0-1.896c.128-.3.316-.574.552-.803a2.585 2.585 0 0 1 1.802-.726c.335 0 .666.064.975.189.31.124.59.306.827.537l5.832 5.675 13.466-13.098a2.55 2.55 0 0 1 .826-.538 2.608 2.608 0 0 1 1.951 0c.31.125.59.308.826.538z" fill="#185ADB"/>
    <path d="M21.205 7.422h-5.089c-2.7 0-5.288 1.043-7.197 2.899a9.76 9.76 0 0 0-2.982 6.997v51.956A9.759 9.759 0 0 0 8.92 76.27a10.327 10.327 0 0 0 7.197 2.899H67.01c2.7 0 5.288-1.043 7.197-2.899a9.76 9.76 0 0 0 2.981-6.997V17.318a9.76 9.76 0 0 0-2.98-6.997 10.328 10.328 0 0 0-7.198-2.899h-5.09v4.948h5.09c1.35 0 2.644.522 3.599 1.45a4.88 4.88 0 0 1 1.49 3.498v51.956a4.88 4.88 0 0 1-1.49 3.499 5.164 5.164 0 0 1-3.6 1.449H16.117a5.164 5.164 0 0 1-3.599-1.45 4.88 4.88 0 0 1-1.49-3.498V17.318a4.88 4.88 0 0 1 1.49-3.498 5.164 5.164 0 0 1 3.6-1.45h5.088V7.422z" fill="#185ADB"/>
    <path d="M49.196 4.948c.675 0 1.323.26 1.8.725a2.44 2.44 0 0 1 .745 1.75v4.947a2.44 2.44 0 0 1-.745 1.75 2.582 2.582 0 0 1-1.8.724H33.93c-.675 0-1.323-.26-1.8-.724a2.44 2.44 0 0 1-.745-1.75V7.422c0-.656.268-1.285.745-1.75a2.582 2.582 0 0 1 1.8-.724h15.267zM33.93 0a7.746 7.746 0 0 0-5.399 2.174 7.32 7.32 0 0 0-2.235 5.248v4.948a7.32 7.32 0 0 0 2.235 5.249 7.746 7.746 0 0 0 5.398 2.174h15.268a7.746 7.746 0 0 0 5.398-2.174 7.32 7.32 0 0 0 2.236-5.249V7.422a7.32 7.32 0 0 0-2.236-5.248A7.746 7.746 0 0 0 49.196 0H33.93z" fill="#185ADB"/>
</svg>
