<svg width="95" height="95" viewBox="0 0 95 95" fill="none" xmlns="http://www.w3.org/2000/svg">
    <path d="M27.708 59.375h27.709v7.917H27.708v-7.917zm0-15.833h39.584v7.916H27.708v-7.916zm0-15.834h39.584v7.917H27.708v-7.917zm47.5-15.833H58.663C57 7.283 52.645 3.958 47.5 3.958S38 7.283 36.337 11.875H19.792c-.555 0-1.07.04-1.584.158a7.95 7.95 0 0 0-5.7 4.71 7.626 7.626 0 0 0-.633 3.049v55.416c0 1.07.238 2.138.633 3.088.396.95.99 1.781 1.702 2.533a7.948 7.948 0 0 0 3.998 2.177c.515.08 1.03.119 1.584.119h55.416c4.355 0 7.917-3.563 7.917-7.917V19.792c0-4.355-3.563-7.917-7.917-7.917zm-27.708-.99a2.99 2.99 0 0 1 2.969 2.97 2.99 2.99 0 0 1-2.969 2.968 2.99 2.99 0 0 1-2.969-2.969 2.99 2.99 0 0 1 2.969-2.969zm27.708 64.323H19.792V19.792h55.416v55.416z" fill="#185ADB"/>
</svg>
